<?xml version="1.0" standalone="no"?>
<!DOCTYPE svg PUBLIC "-//W3C//DTD SVG 1.1//EN" "http://www.w3.org/Graphics/SVG/1.1/DTD/svg11.dtd" >
<!--
2013-9-30: Created.
-->
<svg>
<metadata>
Created by iconfont
</metadata>
<defs>

<font id="iconfont" horiz-adv-x="1024" >
  <font-face
    font-family="iconfont"
    font-weight="500"
    font-stretch="normal"
    units-per-em="1024"
    ascent="896"
    descent="-128"
  />
    <missing-glyph />
    
    <glyph glyph-name="buzhoutiao" unicode="&#59141;" d="M768 462.769231a98.461538 98.461538 0 1 0-96.492308-118.153846h-63.015384a98.461538 98.461538 0 0 0-192.984616 0h-63.015384a98.461538 98.461538 0 1 0 0 39.384615h63.015384a98.461538 98.461538 0 0 0 192.984616 0h63.015384a98.461538 98.461538 0 0 0 96.492308 78.769231z m-512-39.384616a59.076923 59.076923 0 1 1 0-118.153846 59.076923 59.076923 0 0 1 0 118.153846z m256 0a59.076923 59.076923 0 1 1 0-118.153846 59.076923 59.076923 0 0 1 0 118.153846z m256 0a59.076923 59.076923 0 1 1 0-118.153846 59.076923 59.076923 0 0 1 0 118.153846z"  horiz-adv-x="1024" />

    
    <glyph glyph-name="biaoge" unicode="&#59142;" d="M866.461538 108.307692a78.769231 78.769231 0 0 0-78.76923-78.76923H236.307692a78.769231 78.769231 0 0 0-78.76923 78.76923V659.692308a78.769231 78.769231 0 0 0 78.76923 78.76923h551.384616a78.769231 78.769231 0 0 0 78.76923-78.76923v-551.384616zM315.076923 147.692308H196.923077v-39.384616a39.384615 39.384615 0 0 1 34.776615-39.108923L236.307692 68.923077h78.769231v78.769231z m354.461539 0h-137.846154v-78.769231H669.538462v78.769231z m-177.23077 0H354.461538v-78.769231h137.846154v78.769231z m334.769231 0h-118.153846v-78.769231h78.769231a39.384615 39.384615 0 0 1 39.108923 34.776615L827.076923 108.307692v39.384616zM315.076923 305.230769H196.923077v-118.153846h118.153846v118.153846z m177.230769 0H354.461538v-118.153846h137.846154v118.153846z m177.23077 0h-137.846154v-118.153846H669.538462v118.153846z m157.538461 0h-118.153846v-118.153846h118.153846v118.153846zM315.076923 462.769231H196.923077v-118.153846h118.153846v118.153846z m177.230769 0H354.461538v-118.153846h137.846154v118.153846z m177.23077 0h-137.846154v-118.153846H669.538462v118.153846z m157.538461 0h-118.153846v-118.153846h118.153846v118.153846z m-39.384615 236.307692H236.307692a39.384615 39.384615 0 0 1-39.108923-34.776615L196.923077 659.692308v-157.538462h630.153846V659.692308a39.384615 39.384615 0 0 1-34.776615 39.108923L787.692308 699.076923z"  horiz-adv-x="1024" />

    
    <glyph glyph-name="biaodan" unicode="&#59143;" d="M630.153846 738.461538a39.384615 39.384615 0 0 0 39.384616-39.384615v-19.692308h59.076923a98.461538 98.461538 0 0 0 98.264615-92.002461L827.076923 580.923077v-452.923077a98.461538 98.461538 0 0 0-92.002461-98.264615L728.615385 29.538462h-433.23077a98.461538 98.461538 0 0 0-98.264615 92.002461L196.923077 128V580.923077a98.461538 98.461538 0 0 0 92.002461 98.264615L295.384615 679.384615H354.461538V699.076923a39.384615 39.384615 0 0 0 39.384616 39.384615h236.307692zM354.461538 640H295.384615a59.076923 59.076923 0 0 1-58.80123-53.405538L236.307692 580.923077v-452.923077a59.076923 59.076923 0 0 1 53.405539-58.801231L295.384615 68.923077h433.23077a59.076923 59.076923 0 0 1 58.80123 53.405538L787.692308 128V580.923077a59.076923 59.076923 0 0 1-53.405539 58.801231L728.615385 640H669.538462V620.307692a39.384615 39.384615 0 0 0-39.384616-39.384615h-236.307692a39.384615 39.384615 0 0 0-39.384616 39.384615v19.692308z m118.153847-354.461538a19.692308 19.692308 0 0 0 3.544615-39.069539L472.615385 246.153846H315.076923a19.692308 19.692308 0 0 0-3.544615 39.069539L315.076923 285.538462h157.538462z m236.307692 157.538461a19.692308 19.692308 0 0 0 3.544615-39.069538L708.923077 403.692308H315.076923a19.692308 19.692308 0 0 0-3.544615 39.069538L315.076923 443.076923h393.846154zM630.153846 699.076923h-236.307692v-78.769231h236.307692V699.076923z"  horiz-adv-x="1024" />

    
    <glyph glyph-name="anniu" unicode="&#59144;" d="M787.692308 659.692308a78.769231 78.769231 0 0 0 78.76923-78.769231v-393.846154a78.769231 78.769231 0 0 0-78.76923-78.769231H236.307692a78.769231 78.769231 0 0 0-78.76923 78.769231V580.923077a78.769231 78.769231 0 0 0 78.76923 78.769231h551.384616z m0-39.384616H236.307692a39.384615 39.384615 0 0 1-39.108923-34.776615L196.923077 580.923077v-393.846154a39.384615 39.384615 0 0 1 34.776615-39.108923L236.307692 147.692308h551.384616a39.384615 39.384615 0 0 1 39.108923 34.776615L827.076923 187.076923V580.923077a39.384615 39.384615 0 0 1-34.776615 39.108923L787.692308 620.307692zM349.814154 473.954462c16.777846 0 30.011077-4.017231 39.463384-12.051693 8.743385-7.561846 13.233231-17.723077 13.233231-30.483692 0-9.452308-2.363077-17.486769-6.852923-24.103385-4.489846-6.144-10.870154-10.633846-19.377231-13.942154 11.106462-2.126769 19.377231-6.616615 25.048616-13.469538 5.435077-6.616615 8.270769-15.832615 8.270769-27.175385 0-17.014154-5.907692-29.538462-17.486769-37.572923-9.924923-6.616615-24.103385-9.924923-42.062769-9.924923H272.541538v168.723693z m211.022769 0v-23.63077h-55.296V305.230769h-27.648v145.092923H422.596923v23.63077h138.24z m47.734154 0l83.416615-121.698462h0.945231v121.698462h27.884308V305.230769h-26.939077l-84.361846 123.352616h-0.945231V305.230769h-27.648v168.723693h27.648z m-261.828923-93.577847H300.189538v-52.460307h45.843693c10.397538 0 18.668308 1.654154 24.576 4.962461 7.561846 4.253538 11.342769 10.870154 11.342769 20.322462 0 9.688615-2.835692 16.541538-8.270769 20.795077-5.671385 4.253538-14.651077 6.380308-26.939077 6.380307z m-3.780923 70.892308H300.189538v-48.206769h42.299077c11.815385 0 20.086154 2.126769 25.048616 5.907692 4.726154 4.017231 7.325538 10.397538 7.325538 19.140923 0 8.034462-2.599385 13.942154-7.325538 17.486769-5.198769 3.780923-13.233231 5.671385-24.576 5.671385z"  horiz-adv-x="1024" />

    
    <glyph glyph-name="daohangcaidan" unicode="&#59145;" d="M866.461538 108.307692a19.692308 19.692308 0 0 0 3.544616-39.069538L866.461538 68.923077H354.461538a19.692308 19.692308 0 0 0-3.544615 39.069538L354.461538 108.307692h512zM236.307692 108.307692a19.692308 19.692308 0 0 0 3.544616-39.069538L236.307692 68.923077H157.538462a19.692308 19.692308 0 0 0-3.544616 39.069538L157.538462 108.307692h78.76923z m630.153846 295.384616a19.692308 19.692308 0 0 0 3.544616-39.069539L866.461538 364.307692H354.461538a19.692308 19.692308 0 0 0-3.544615 39.069539L354.461538 403.692308h512z m-630.153846 0a19.692308 19.692308 0 0 0 3.544616-39.069539L236.307692 364.307692H157.538462a19.692308 19.692308 0 0 0-3.544616 39.069539L157.538462 403.692308h78.76923zM866.461538 699.076923a19.692308 19.692308 0 0 0 3.544616-39.069538L866.461538 659.692308H354.461538a19.692308 19.692308 0 0 0-3.544615 39.069538L354.461538 699.076923h512zM236.307692 699.076923a19.692308 19.692308 0 0 0 3.544616-39.069538L236.307692 659.692308H157.538462a19.692308 19.692308 0 0 0-3.544616 39.069538L157.538462 699.076923h78.76923z"  horiz-adv-x="1024" />

    
    <glyph glyph-name="ditu" unicode="&#59146;" d="M285.656615 550.045538a19.692308 19.692308 0 0 0-6.222769-24.457846l-3.072-1.811692-59.746461-28.553846v-396.918154l158.995692 65.181538a19.692308 19.692308 0 0 0 10.633846 1.220924l3.544615-0.905847 204.603077-74.003692 212.992 69.750154V478.916923l-51.869538-20.125538a19.692308 19.692308 0 0 0-23.906462 8.073846l-1.575384 3.150769a19.692308 19.692308 0 0 0 8.073846 23.906462l3.150769 1.575384 78.690462 30.483692a19.692308 19.692308 0 0 0 26.54523-14.966153l0.275693-3.387077v-362.338462a19.692308 19.692308 0 0 0-10.24-17.329231l-3.308308-1.378461-232.999385-76.406154a19.692308 19.692308 0 0 0-9.64923-0.630154l-3.15077 0.866462-203.933538 73.806769-179.081846-73.531077a19.692308 19.692308 0 0 0-26.899692 14.848L177.230769 68.923077V507.628308a19.692308 19.692308 0 0 0 8.428308 16.147692l2.756923 1.614769 70.971077 33.910154a19.692308 19.692308 0 0 0 26.269538-9.255385zM512.039385 738.461538A196.923077 196.923077 0 0 0 708.923077 541.538462c-3.387077-126.306462-69.041231-244.460308-196.923077-354.461539-133.632 122.210462-199.286154 240.364308-196.844308 354.461539A196.923077 196.923077 0 0 0 512 738.461538z m0-39.384615c-87.000615 0-157.538462-70.498462-157.538462-158.365538-1.890462-90.899692 46.631385-187.707077 148.243692-290.185847l9.924923-9.885538 9.019077 8.507077c92.790154 89.875692 141.272615 183.453538 147.298462 280.694154L669.538462 541.538462a157.538462 157.538462 0 0 1-157.538462 157.538461zM512 620.307692a78.769231 78.769231 0 1 0 0-157.538461 78.769231 78.769231 0 0 0 0 157.538461z m0-39.384615a39.384615 39.384615 0 1 1 0-78.769231 39.384615 39.384615 0 0 1 0 78.769231z"  horiz-adv-x="1024" />

    
    <glyph glyph-name="fuwenben" unicode="&#59147;" d="M846.769231 68.923077a19.692308 19.692308 0 0 0 3.544615-39.069539L846.769231 29.538462h-669.538462a19.692308 19.692308 0 0 0-3.544615 39.069538L177.230769 68.923077h669.538462z m0 118.153846a19.692308 19.692308 0 0 0 3.544615-39.069538L846.769231 147.692308h-669.538462a19.692308 19.692308 0 0 0-3.544615 39.069538L177.230769 187.076923h669.538462z m0 118.153846a19.692308 19.692308 0 0 0 3.544615-39.069538L846.769231 265.846154h-236.307693a19.692308 19.692308 0 0 0-3.544615 39.069538L610.461538 305.230769h236.307693z m-315.076923 374.153846a19.692308 19.692308 0 0 0 19.37723-16.147692L551.384615 659.692308v-78.769231a19.692308 19.692308 0 0 0-39.069538-3.544615L512 580.923077V640h-118.153846V305.230769h59.076923a19.692308 19.692308 0 0 0 3.544615-39.069538L452.923077 265.846154h-157.538462a19.692308 19.692308 0 0 0-3.544615 39.069538L295.384615 305.230769H354.461538V640H236.307692v-58.761846a19.692308 19.692308 0 0 0-16.147692-19.337846l-3.544615-0.354462a19.692308 19.692308 0 0 0-19.377231 16.147692L196.923077 581.277538V659.692308a19.692308 19.692308 0 0 0 16.147692 19.37723L216.615385 679.384615h315.076923z"  horiz-adv-x="1024" />

    
    <glyph glyph-name="danxuankuang" unicode="&#59148;" d="M708.923077 344.615385a157.538462 157.538462 0 1 0 0-315.076923 157.538462 157.538462 0 0 0 0 315.076923zM315.076923 344.615385a157.538462 157.538462 0 1 0 0-315.076923 157.538462 157.538462 0 0 0 0 315.076923z m393.846154-39.384616a118.153846 118.153846 0 1 1 0-236.307692 118.153846 118.153846 0 0 1 0 236.307692zM315.076923 305.230769a118.153846 118.153846 0 1 1 0-236.307692 118.153846 118.153846 0 0 1 0 236.307692zM708.923077 738.461538a157.538462 157.538462 0 1 0 0-315.076923 157.538462 157.538462 0 0 0 0 315.076923z m-226.067692-2.875076a19.692308 19.692308 0 0 0 8.152615-23.867077l-1.575385-3.190154-168.054153-275.692308a19.692308 19.692308 0 0 0-22.488616-8.625231l-3.150769 1.260308-147.022769 73.491692a19.692308 19.692308 0 0 0 14.336 36.548923l3.308307-1.299692 130.796308-65.417846 158.641231 260.214154a19.692308 19.692308 0 0 0 27.057231 6.577231zM708.923077 699.076923a118.153846 118.153846 0 1 1 0-236.307692 118.153846 118.153846 0 0 1 0 236.307692z"  horiz-adv-x="1024" />

    
    <glyph glyph-name="biaoqian" unicode="&#59149;" d="M787.692308 738.461538a78.769231 78.769231 0 0 0 78.76923-78.76923v-586.83077a78.769231 78.769231 0 0 0-127.251692-62.109538l-177.467077 138.633846a78.769231 78.769231 0 0 1-96.728615 0.157539l-180.460308-139.776A78.769231 78.769231 0 0 0 157.538462 72.034462V659.692308a78.769231 78.769231 0 0 0 78.76923 78.76923h551.384616z m0-39.384615H236.307692a39.384615 39.384615 0 0 1-39.108923-34.776615L196.923077 659.692308v-587.618462a39.384615 39.384615 0 0 1 59.392-33.949538l4.096 2.756923 180.460308 139.815384a118.153846 118.153846 0 0 0 138.594461 4.450462l6.498462-4.726154 177.467077-138.633846a39.384615 39.384615 0 0 1 63.40923 26.466461L827.076923 72.861538V659.692308a39.384615 39.384615 0 0 1-34.776615 39.108923L787.692308 699.076923z m-98.461539-236.307692a19.692308 19.692308 0 0 0 3.544616-39.069539L689.230769 423.384615h-354.461538a19.692308 19.692308 0 0 0-3.544616 39.069539L334.769231 462.769231h354.461538z m0 118.153846a19.692308 19.692308 0 0 0 3.544616-39.069539L689.230769 541.538462h-354.461538a19.692308 19.692308 0 0 0-3.544616 39.069538L334.769231 580.923077h354.461538z"  horiz-adv-x="1024" />

    
    <glyph glyph-name="duoxuankuang" unicode="&#59150;" d="M787.692308 344.615385a78.769231 78.769231 0 0 0 78.76923-78.769231v-157.538462a78.769231 78.769231 0 0 0-78.76923-78.76923h-157.538462a78.769231 78.769231 0 0 0-78.769231 78.76923v157.538462a78.769231 78.769231 0 0 0 78.769231 78.769231h157.538462z m-304.836923-2.875077a19.692308 19.692308 0 0 0 8.152615-23.867077l-1.575385-3.190154-168.054153-275.692308a19.692308 19.692308 0 0 0-22.488616-8.625231l-3.150769 1.260308-147.022769 73.491692a19.692308 19.692308 0 0 0 14.336 36.548924l3.308307-1.299693 130.796308-65.417846 158.641231 260.214154a19.692308 19.692308 0 0 0 27.057231 6.577231zM787.692308 305.230769h-157.538462a39.384615 39.384615 0 0 1-39.108923-34.776615L590.769231 265.846154v-157.538462a39.384615 39.384615 0 0 1 34.776615-39.108923L630.153846 68.923077h157.538462a39.384615 39.384615 0 0 1 39.108923 34.776615L827.076923 108.307692v157.538462a39.384615 39.384615 0 0 1-34.776615 39.108923L787.692308 305.230769z m0 433.230769a78.769231 78.769231 0 0 0 78.76923-78.76923v-157.538462a78.769231 78.769231 0 0 0-78.76923-78.769231h-157.538462a78.769231 78.769231 0 0 0-78.769231 78.769231V659.692308a78.769231 78.769231 0 0 0 78.769231 78.76923h157.538462z m-304.836923-2.875076a19.692308 19.692308 0 0 0 8.152615-23.867077l-1.575385-3.190154-168.054153-275.692308a19.692308 19.692308 0 0 0-22.488616-8.625231l-3.150769 1.260308-147.022769 73.491692a19.692308 19.692308 0 0 0 14.336 36.548923l3.308307-1.299692 130.796308-65.417846 158.641231 260.214154a19.692308 19.692308 0 0 0 27.057231 6.577231zM787.692308 699.076923h-157.538462a39.384615 39.384615 0 0 1-39.108923-34.776615L590.769231 659.692308v-157.538462a39.384615 39.384615 0 0 1 34.776615-39.108923L630.153846 462.769231h157.538462a39.384615 39.384615 0 0 1 39.108923 34.776615L827.076923 502.153846V659.692308a39.384615 39.384615 0 0 1-34.776615 39.108923L787.692308 699.076923z"  horiz-adv-x="1024" />

    
    <glyph glyph-name="beianxinxi" unicode="&#59151;" d="M511.212308 738.461538l87.512615-27.293538 62.700308-20.046769 56.123077-18.471385 49.624615-16.896 32.964923-11.657846 29.262769-10.752 25.6-9.846154 7.75877-3.150769c26.663385-272.502154-90.466462-469.464615-351.31077-590.808615-254.267077 113.388308-371.515077 310.272-351.783384 590.690461l44.110769 13.312 62.424615 19.298462 39.148308 12.445538 37.139692 12.169846 35.170462 11.815385 33.161846 11.500308 31.153231 11.18523 29.184 10.83077 13.863384 5.316923L511.212308 738.461538z m1.693538-41.708307l-13.508923-5.316923-30.562461-11.579077-16.108308-5.907693-33.910154-12.130461-36.194462-12.445539-38.439384-12.839384-20.086154-6.537846-41.747692-13.39077-44.11077-13.705846-40.763076-12.406154-0.039385-1.96923c-8.546462-238.788923 91.608615-407.000615 304.009846-510.857846l9.609846-4.608 10.515693 5.198769c218.269538 110.552615 318.227692 278.606769 304.206769 510.188307L825.501538 592.738462l-20.361846 7.68-20.676923 7.522461-34.382769 12.130462-25.166769 8.585846-41.078154 13.784615-61.046154 19.810462-68.135385 21.543384-41.708307 12.996923z m190.660923-161.398154a19.692308 19.692308 0 0 0 1.536-25.206154l-2.363077-2.638769-209.32923-196.923077a19.692308 19.692308 0 0 0-24.182154-2.205539l-3.032616 2.402462-145.132307 140.918154a19.692308 19.692308 0 0 0 24.654769 30.483692l2.756923-2.205538 131.623385-127.803077 195.623384 184.004923a19.692308 19.692308 0 0 0 27.844923-0.827077z"  horiz-adv-x="1024" />

    
    <glyph glyph-name="mengban" unicode="&#59152;" d="M787.692308 738.461538a78.769231 78.769231 0 0 0 78.76923-78.76923v-551.384616a78.769231 78.769231 0 0 0-78.76923-78.76923h-44.307693l-2.166153-2.166154-2.166154 2.166154H236.307692a78.769231 78.769231 0 0 0-78.76923 78.76923V659.692308a78.769231 78.769231 0 0 0 78.76923 78.76923h551.384616z m0-39.384615h-43.59877L196.923077 152.457846V108.307692a39.384615 39.384615 0 0 1 34.776615-39.108923L236.307692 68.923077h43.204923L827.076923 616.487385V659.692308a39.384615 39.384615 0 0 1-34.776615 39.108923L787.692308 699.076923z m39.384615-138.279385L335.202462 68.923077h166.754461L827.076923 393.688615V560.797538z m0-222.759384L557.686154 68.923077h169.393231L827.076923 168.96v169.078154z m0-224.768L782.769231 68.923077H787.692308a39.384615 39.384615 0 0 1 39.108923 34.776615L827.076923 108.307692v4.962462zM688.364308 699.076923h-168.566154L196.923077 374.193231v-166.084923L688.364308 699.076923z m-224.059077 0H296.96L196.923077 599.000615v-168.920615L464.305231 699.076923zM241.270154 699.076923H236.307692a39.384615 39.384615 0 0 1-39.108923-34.776615L196.923077 659.692308v-5.001846L241.270154 699.076923z"  horiz-adv-x="1024" />

    
    <glyph glyph-name="jietuqi" unicode="&#59153;" d="M275.692308 758.153846a19.692308 19.692308 0 0 0 19.37723-16.147692L295.384615 738.461538v-571.076923H866.461538a19.692308 19.692308 0 0 0 19.377231-16.147692l0.315077-3.544615a19.692308 19.692308 0 0 0-16.147692-19.377231L866.461538 128h-78.76923V29.538462a19.692308 19.692308 0 0 0-39.069539-3.544616L748.307692 29.538462v98.461538H275.692308a19.692308 19.692308 0 0 0-19.377231 16.147692L256 147.692308V620.307692H157.538462a19.692308 19.692308 0 0 0-3.544616 39.069539L157.538462 659.692308h98.461538V738.461538a19.692308 19.692308 0 0 0 19.692308 19.692308z m488.920615-101.848615a19.692308 19.692308 0 0 0 19.377231-16.147693l0.315077-3.544615v-366.355692a19.692308 19.692308 0 0 0-39.069539-3.544616l-0.315077 3.544616-0.039384 346.663384h-346.624a19.692308 19.692308 0 0 0-19.377231 16.147693l-0.315077 3.544615a19.692308 19.692308 0 0 0 16.147692 19.377231l3.544616 0.315077h366.355692z"  horiz-adv-x="1024" />

    
    <glyph glyph-name="daojishi" unicode="&#59154;" d="M509.400615 738.461538a334.769231 334.769231 0 0 0 209.801847-595.652923l1.063384-0.866461 78.769231-78.769231a19.692308 19.692308 0 0 0-25.127385-30.129231l-2.756923 2.244923-78.769231 78.769231a19.613538 19.613538 0 0 0-4.332307 6.537846A332.524308 332.524308 0 0 0 509.44 68.923077a333.193846 333.193846 0 0 0-178.766769 51.672615 15.084308 15.084308 0 0 0-1.969231-3.780923l-2.244923-2.756923-78.769231-78.769231a19.692308 19.692308 0 0 0-30.129231 25.127385l2.284308 2.756923 78.769231 78.769231 1.024 0.866461A334.769231 334.769231 0 0 0 509.400615 738.461538z m0-39.384615a295.384615 295.384615 0 1 1 0-590.769231 295.384615 295.384615 0 0 1 0 590.769231z m0-118.153846a19.692308 19.692308 0 0 0 19.377231-16.147692l0.315077-3.544616v-134.774154l74.200615-88.930461a19.692308 19.692308 0 0 0 0-25.206154l-2.520615-2.520615a19.692308 19.692308 0 0 0-25.206154 0l-2.520615 2.520615-83.337846 99.918769V561.230769a19.692308 19.692308 0 0 0 19.692307 19.692308zM285.932308 733.735385a19.692308 19.692308 0 0 0 4.174769-24.930462l-2.087385-2.875077L192.196923 594.432a19.692308 19.692308 0 0 0-31.901538 22.803692l2.048 2.875077 95.862153 111.497846a19.692308 19.692308 0 0 0 27.766154 2.087385z m446.542769-0.393847a19.692308 19.692308 0 0 0 27.805538-1.339076l101.218462-111.458462 2.166154-2.875077a19.692308 19.692308 0 0 0-31.310769-23.630769l-101.218462 111.458461-2.166154 2.875077a19.692308 19.692308 0 0 0 3.505231 24.969846z"  horiz-adv-x="1024" />

    
    <glyph glyph-name="duihuakuang" unicode="&#59155;" d="M669.538462 620.307692a78.769231 78.769231 0 0 0 78.76923-78.76923v-354.461539a78.769231 78.769231 0 0 0-78.76923-78.769231H284.868923a78.769231 78.769231 0 0 1-48.718769-16.856615L207.556923 68.923077A30.916923 30.916923 0 0 0 157.538462 93.223385V541.538462a78.769231 78.769231 0 0 0 78.76923 78.76923h433.23077z m0-39.384615H236.307692a39.384615 39.384615 0 0 1-39.108923-34.776615L196.923077 541.538462v-430.828308l14.887385 11.657846a118.153846 118.153846 0 0 0 64.275692 25.009231L284.868923 147.692308H669.538462a39.384615 39.384615 0 0 1 39.108923 34.776615L708.923077 187.076923V541.538462a39.384615 39.384615 0 0 1-34.776615 39.108923L669.538462 580.923077z m118.153846 137.846154a98.461538 98.461538 0 0 0 98.264615-92.002462L886.153846 620.307692v-354.461538a19.692308 19.692308 0 0 0-39.069538-3.544616L846.769231 265.846154V620.307692a59.076923 59.076923 0 0 1-53.405539 58.801231L787.692308 679.384615H315.076923a19.692308 19.692308 0 0 0-3.544615 39.069539L315.076923 718.769231h472.615385zM630.153846 305.230769a19.692308 19.692308 0 0 0 3.544616-39.069538L630.153846 265.846154h-118.153846a19.692308 19.692308 0 0 0-3.544615 39.069538L512 305.230769h118.153846z m0 118.153846a19.692308 19.692308 0 0 0 3.544616-39.069538L630.153846 384H275.692308a19.692308 19.692308 0 0 0-3.544616 39.069538L275.692308 423.384615h354.461538z"  horiz-adv-x="1024" />

    
    <glyph glyph-name="lunbotu" unicode="&#59156;" d="M748.307692 699.076923a78.769231 78.769231 0 0 0 78.769231-78.769231v-472.615384a78.769231 78.769231 0 0 0-78.769231-78.769231H275.692308a78.769231 78.769231 0 0 0-78.769231 78.769231V620.307692a78.769231 78.769231 0 0 0 78.769231 78.769231h472.615384z m0-39.384615H275.692308a39.384615 39.384615 0 0 1-39.108923-34.776616L236.307692 620.307692v-472.615384a39.384615 39.384615 0 0 1 34.776616-39.108923L275.692308 108.307692h472.615384a39.384615 39.384615 0 0 1 39.108923 34.776616L787.692308 147.692308V620.307692a39.384615 39.384615 0 0 1-34.776616 39.108923L748.307692 659.692308zM157.538462 600.615385v-39.384616H98.461538v-354.461538h57.816616v-39.384616H59.076923v433.23077H157.538462z m807.384615 0v-433.23077h-97.201231v39.384616H925.538462v354.461538H866.461538v39.384616h98.461539z m-351.113846-120.162462l3.150769-1.969231 64.433231-48.64a19.692308 19.692308 0 0 0-20.716308-33.319384l-2.993231 1.890461-47.53723 35.879385-91.529847-142.217846a19.692308 19.692308 0 0 0-27.096615-5.986462l-2.835692 2.205539-40.132923 37.218461-77.981539-110.434461a19.692308 19.692308 0 0 0-24.418461-6.498462l-3.072 1.811692a19.692308 19.692308 0 0 0-6.498462 24.379077l1.811692 3.072 90.978462 128.748308a19.692308 19.692308 0 0 0 26.387692 5.435077l3.111385-2.363077 39.345231-36.470154 90.348307 140.209231a19.692308 19.692308 0 0 0 25.206154 7.049846zM384 541.538462a29.538462 29.538462 0 1 0 0-59.076924 29.538462 29.538462 0 0 0 0 59.076924z"  horiz-adv-x="1024" />

    
    <glyph glyph-name="shijianxuanze" unicode="&#59157;" d="M512 738.461538a354.461538 354.461538 0 1 0 0-708.923076 354.461538 354.461538 0 0 0 0 708.923076z m0-39.384615a315.076923 315.076923 0 1 1 0-630.153846 315.076923 315.076923 0 0 1 0 630.153846z m-39.384615-137.846154a19.692308 19.692308 0 0 0 19.37723-16.147692L492.307692 541.538462l0.118154-181.720616 146.825846-76.524308a19.692308 19.692308 0 0 0 9.728-23.236923l-1.378461-3.308307a19.692308 19.692308 0 0 0-23.236923-9.728l-3.308308 1.378461-157.420308 81.959385a19.692308 19.692308 0 0 0-10.24 13.863384l-0.354461 3.623385L452.923077 541.538462a19.692308 19.692308 0 0 0 19.692308 19.692307z"  horiz-adv-x="1024" />

    
    <glyph glyph-name="touxiang" unicode="&#59158;" d="M512 738.461538a354.461538 354.461538 0 1 0 0-708.923076 354.461538 354.461538 0 0 0 0 708.923076z m0-39.384615a315.076923 315.076923 0 1 1 0-630.153846 315.076923 315.076923 0 0 1 0 630.153846z m0-78.769231a118.153846 118.153846 0 0 0 53.720615-223.428923A216.694154 216.694154 0 0 0 728.615385 187.076923a19.692308 19.692308 0 1 0-39.384616 0 177.427692 177.427692 0 0 1-177.545846 177.230769A177.427692 177.427692 0 0 1 334.769231 200.940308a19.692308 19.692308 0 1 0-39.305846 3.032615 216.772923 216.772923 0 0 0 162.73723 193.063385A118.153846 118.153846 0 0 0 512 620.307692z m0-39.384615a78.769231 78.769231 0 1 1 0-157.538462 78.769231 78.769231 0 0 1 0 157.538462z"  horiz-adv-x="1024" />

    
    <glyph glyph-name="juxing" unicode="&#59159;" d="M787.692308 738.461538a78.769231 78.769231 0 0 0 78.76923-78.76923v-551.384616a78.769231 78.769231 0 0 0-78.76923-78.76923H236.307692a78.769231 78.769231 0 0 0-78.76923 78.76923V659.692308a78.769231 78.769231 0 0 0 78.76923 78.76923h551.384616z m0-39.384615H236.307692a39.384615 39.384615 0 0 1-39.108923-34.776615L196.923077 659.692308v-551.384616a39.384615 39.384615 0 0 1 34.776615-39.108923L236.307692 68.923077h551.384616a39.384615 39.384615 0 0 1 39.108923 34.776615L827.076923 108.307692V659.692308a39.384615 39.384615 0 0 1-34.776615 39.108923L787.692308 699.076923z"  horiz-adv-x="1024" />

    
    <glyph glyph-name="huidaodingbu" unicode="&#59160;" d="M787.692308 738.461538a78.769231 78.769231 0 0 0 78.76923-78.76923v-551.384616a78.769231 78.769231 0 0 0-78.76923-78.76923H236.307692a78.769231 78.769231 0 0 0-78.76923 78.76923V659.692308a78.769231 78.769231 0 0 0 78.76923 78.76923h551.384616z m0-39.384615H236.307692a39.384615 39.384615 0 0 1-39.108923-34.776615L196.923077 659.692308v-551.384616a39.384615 39.384615 0 0 1 34.776615-39.108923L236.307692 68.923077h551.384616a39.384615 39.384615 0 0 1 39.108923 34.776615L827.076923 108.307692V659.692308a39.384615 39.384615 0 0 1-34.776615 39.108923L787.692308 699.076923z m-264.388923-259.505231l2.756923-2.244923 167.069538-167.108923a19.692308 19.692308 0 0 0-25.127384-30.129231l-2.756924 2.284308-153.206153 153.166769-153.088-153.206154a19.692308 19.692308 0 0 0-25.127385-2.244923l-2.756923 2.284308a19.692308 19.692308 0 0 0-2.244923 25.127385l2.244923 2.717538 167.108923 167.108923a19.692308 19.692308 0 0 0 25.127385 2.244923zM689.230769 541.538462a19.692308 19.692308 0 0 0 3.544616-39.069539L689.230769 502.153846h-354.461538a19.692308 19.692308 0 0 0-3.544616 39.069539L334.769231 541.538462h354.461538z"  horiz-adv-x="1024" />

    
    <glyph glyph-name="jiazaizhong" unicode="&#59161;" d="M512 206.769231a19.692308 19.692308 0 0 0 19.377231-16.147693l0.315077-3.544615v-157.538461a19.692308 19.692308 0 0 0-39.069539-3.544616L492.307692 29.538462v157.538461a19.692308 19.692308 0 0 0 19.692308 19.692308z m-125.321846 51.908923a19.692308 19.692308 0 0 0 2.284308-25.127385l-2.284308-2.756923-111.379692-111.379692a19.692308 19.692308 0 0 0-30.129231 25.127384l2.244923 2.756924 111.419077 111.379692a19.692308 19.692308 0 0 0 27.844923 0z m275.771077 2.284308l2.756923-2.284308 111.379692-111.379692a19.692308 19.692308 0 0 0-25.127384-30.129231l-2.756924 2.244923-111.379692 111.419077a19.692308 19.692308 0 0 0 25.127385 30.129231zM315.076923 403.692308a19.692308 19.692308 0 0 0 3.544615-39.069539L315.076923 364.307692H157.538462a19.692308 19.692308 0 0 0-3.544616 39.069539L157.538462 403.692308h157.538461z m551.384615 0a19.692308 19.692308 0 0 0 3.544616-39.069539L866.461538 364.307692h-157.538461a19.692308 19.692308 0 0 0-3.544615 39.069539L708.923077 403.692308h157.538461z m-89.875692 244.893538a19.692308 19.692308 0 0 0 2.244923-25.127384l-2.244923-2.756924-111.419077-111.379692a19.692308 19.692308 0 0 0-30.129231 25.127385l2.284308 2.756923 111.379692 111.379692a19.692308 19.692308 0 0 0 27.884308 0zM272.541538 650.830769l2.756924-2.244923 111.379692-111.419077a19.692308 19.692308 0 0 0-25.127385-30.129231l-2.756923 2.284308L247.453538 620.701538a19.692308 19.692308 0 0 0 25.127385 30.129231zM512 758.153846a19.692308 19.692308 0 0 0 19.377231-16.147692L531.692308 738.461538v-157.538461a19.692308 19.692308 0 0 0-39.069539-3.544615L492.307692 580.923077V738.461538a19.692308 19.692308 0 0 0 19.692308 19.692308z"  horiz-adv-x="1024" />

    
    <glyph glyph-name="wenzi" unicode="&#59162;" d="M748.307692 699.076923a19.692308 19.692308 0 0 0 3.544616-39.069538L748.307692 659.692308h-256v-590.769231a19.692308 19.692308 0 0 0-39.069538-3.544615L452.923077 68.923077V659.692308H196.923077a19.692308 19.692308 0 0 0-3.544615 39.069538L196.923077 699.076923h551.384615z m-196.923077-315.076923a19.692308 19.692308 0 0 0-3.544615 39.069538L551.384615 423.384615h315.076923a19.692308 19.692308 0 0 0 3.544616-39.069538L866.461538 384h-137.846153v-315.076923a19.692308 19.692308 0 0 0-39.069539-3.544615L689.230769 68.923077v315.076923H551.384615z"  horiz-adv-x="1024" />

    
    <glyph glyph-name="pingfen" unicode="&#59163;" d="M524.721231 757.917538c22.724923 2.244923 38.557538-5.907692 65.811692-33.28l10.791385-11.18523 5.907692-6.301539 30.089846-32.886154c15.084308-15.872 25.915077-25.206154 33.673846-29.262769l5.947077-1.969231c8.822154-2.481231 17.683692-2.835692 31.468308-0.708923l9.924923 1.851077 11.776 2.599385 13.824 3.387077 35.997538 9.491692 18.668308 4.608c8.743385 2.008615 16.817231 3.623385 25.206154 5.041231a19.692308 19.692308 0 0 0 22.921846-18.786462c0.196923-5.986462 0.275692-12.012308 0.275692-18.038154 0-221.656615-132.726154-404.164923-301.922461-413.184v-157.892923a19.692308 19.692308 0 0 0-39.108923-3.544615l-0.315077 3.544615v158.956308c-162.894769 17.447385-288.807385 196.214154-288.807385 412.120615l-0.157538 24.694154 0.196923 4.726154a19.692308 19.692308 0 0 0 24.024615 18.116923c17.486769-3.977846 34.658462-8.743385 55.965539-15.36l49.545846-15.084307 17.880615-5.041231 9.846154-2.363077 5.238154-1.024 4.489846-0.551385 5.750154-0.196923 3.544615 0.236308 1.732923 0.196923 7.876924 1.457231c7.955692 2.166154 17.723077 10.397538 31.389538 26.54523l8.664615 10.633847c3.072 3.899077 6.301538 8.113231 9.728 12.681846l5.671385 7.483077 14.572308 19.022769 8.11323 10.003692 7.049847 8.113231c13.233231 14.454154 21.937231 18.865231 35.603692 20.992z m-51.948308-670.680615a19.692308 19.692308 0 1 0-33.634461-20.48c-54.626462 89.678769-120.044308 129.929846-198.025847 123.667692a19.692308 19.692308 0 0 0-3.150769 39.305847c94.129231 7.483077 173.016615-40.96 234.811077-142.493539z m337.801846 143.202462a19.692308 19.692308 0 0 0 2.284308-39.305847c-87.355077-5.12-152.969846-44.977231-198.695385-120.832a19.692308 19.692308 0 0 0-33.71323 20.361847c52.420923 86.921846 129.772308 133.907692 230.124307 139.776zM530.786462 718.729846h-1.732924l-0.551384-0.157538a14.572308 14.572308 0 0 1-3.780923-1.969231l-2.244923-1.732923-3.938462-3.662769a104.172308 104.172308 0 0 1-2.244923-2.363077l-5.159385-5.828923-6.183384-7.483077-7.364923-9.334154-25.324308-33.083077-10.633846-12.996923c-20.401231-23.867077-35.682462-34.697846-54.862769-37.179077l-2.678154-0.512-9.373539-1.575385-4.332307-0.393846-4.411077-0.118154-4.726154 0.275693-8.270769 1.181538-6.537846 1.378462-12.091077 3.072-15.43877 4.411077-69.159384 21.070769-13.508923 3.820307 0.157538-14.572307c4.489846-202.279385 127.527385-362.653538 275.534769-362.653539 150.843077 0 275.692308 166.478769 275.692308 374.153846v-0.748307l-0.078769-5.789539-11.776-2.875077-44.347077-11.657846-15.635692-3.780923c-2.402462-0.551385-4.726154-1.102769-7.010462-1.575384l-12.603077-2.441847c-25.521231-4.332308-40.172308-2.441846-60.928 5.356308-16.226462 8.192-31.428923 21.779692-52.775384 44.898462l-23.552 25.796923-10.31877 10.870154-8.940307 8.940307-7.719385 7.089231c-10.712615 9.255385-17.762462 12.721231-23.315692 12.169846z"  horiz-adv-x="1024" />

    
    <glyph glyph-name="fenyeqi" unicode="&#59164;" d="M787.692308 738.461538a78.769231 78.769231 0 0 0 78.76923-78.76923v-551.384616a78.769231 78.769231 0 0 0-78.76923-78.76923H236.307692a78.769231 78.769231 0 0 0-78.76923 78.76923V659.692308a78.769231 78.769231 0 0 0 78.76923 78.76923h551.384616z m-295.384616-39.384615H236.307692a39.384615 39.384615 0 0 1-39.108923-34.776615L196.923077 659.692308v-551.384616a39.384615 39.384615 0 0 1 34.776615-39.108923L236.307692 68.923077h256V699.076923zM787.692308 699.076923h-256v-630.153846H787.692308a39.384615 39.384615 0 0 1 39.108923 34.776615L827.076923 108.307692V659.692308a39.384615 39.384615 0 0 1-34.776615 39.108923L787.692308 699.076923z m-381.952-223.547077a19.692308 19.692308 0 0 0 2.284307-25.127384l-2.284307-2.756924-62.818462-62.739692 64.708923-64.748308a19.692308 19.692308 0 0 0 2.244923-25.127384l-2.244923-2.717539a19.692308 19.692308 0 0 0-25.127384-2.284307l-2.756923 2.284307-78.611693 78.611693a19.692308 19.692308 0 0 0-2.244923 25.127384l2.244923 2.756923 76.760616 76.721231a19.692308 19.692308 0 0 0 27.844923 0z m212.676923 0a19.692308 19.692308 0 0 0 27.884307 0l76.721231-76.760615 2.284308-2.717539a19.692308 19.692308 0 0 0-2.284308-25.127384l-78.611692-78.611693-2.756923-2.284307a19.692308 19.692308 0 0 0-25.088 2.284307l-2.284308 2.756923a19.692308 19.692308 0 0 0 2.284308 25.088l64.669538 64.748308-62.818461 62.739692-2.244923 2.756924a19.692308 19.692308 0 0 0 2.244923 25.127384z"  horiz-adv-x="1024" />

    
    <glyph glyph-name="mianban" unicode="&#59165;" d="M787.692308 738.461538a78.769231 78.769231 0 0 0 78.76923-78.76923v-551.384616a78.769231 78.769231 0 0 0-78.76923-78.76923H236.307692a78.769231 78.769231 0 0 0-78.76923 78.76923V659.692308a78.769231 78.769231 0 0 0 78.76923 78.76923h551.384616z m0-39.384615H236.307692a39.384615 39.384615 0 0 1-39.108923-34.776615L196.923077 659.692308v-551.384616a39.384615 39.384615 0 0 1 34.776615-39.108923L236.307692 68.923077h551.384616a39.384615 39.384615 0 0 1 39.108923 34.776615L827.076923 108.307692V659.692308a39.384615 39.384615 0 0 1-34.776615 39.108923L787.692308 699.076923zM334.769231 206.769231v-39.384616h-39.384616v39.384616h39.384616z m78.769231 0v-39.384616h-39.384616v39.384616h39.384616z m78.76923 0v-39.384616h-39.384615v39.384616h39.384615z m78.769231 0v-39.384616h-39.384615v39.384616h39.384615z m78.769231 0v-39.384616h-39.384616v39.384616h39.384616z m78.769231 0v-39.384616h-39.384616v39.384616h39.384616z m-393.846154 78.769231v-39.384616h-39.384616v39.384616h39.384616z m393.846154 0v-39.384616h-39.384616v39.384616h39.384616z m-393.846154 78.76923v-39.384615h-39.384616v39.384615h39.384616z m393.846154 0v-39.384615h-39.384616v39.384615h39.384616z m-393.846154 78.769231v-39.384615h-39.384616v39.384615h39.384616z m393.846154 0v-39.384615h-39.384616v39.384615h39.384616z m-393.846154 78.769231v-39.384616h-39.384616v39.384616h39.384616z m393.846154 0v-39.384616h-39.384616v39.384616h39.384616z m-393.846154 78.769231v-39.384616h-39.384616v39.384616h39.384616z m78.769231 0v-39.384616h-39.384616v39.384616h39.384616z m78.76923 0v-39.384616h-39.384615v39.384616h39.384615z m78.769231 0v-39.384616h-39.384615v39.384616h39.384615z m78.769231 0v-39.384616h-39.384616v39.384616h39.384616z m78.769231 0v-39.384616h-39.384616v39.384616h39.384616z"  horiz-adv-x="1024" />

    
    <glyph glyph-name="riqixuanze" unicode="&#59166;" d="M866.461538 108.307692a78.769231 78.769231 0 0 0-78.76923-78.76923H236.307692a78.769231 78.769231 0 0 0-78.76923 78.76923V580.923077a78.769231 78.769231 0 0 0 78.76923 78.769231h137.846154V699.076923a19.692308 19.692308 0 0 0 39.069539 3.544615L413.538462 699.076923v-39.384615h196.923076V699.076923a19.692308 19.692308 0 0 0 39.069539 3.544615L649.846154 699.076923v-39.384615H787.692308a78.769231 78.769231 0 0 0 78.76923-78.769231v-472.615385z m-39.384615 315.076923H196.923077v-315.076923a39.384615 39.384615 0 0 1 34.776615-39.108923L236.307692 68.923077h551.384616a39.384615 39.384615 0 0 1 39.108923 34.776615L827.076923 108.307692v315.076923zM374.153846 620.307692H236.307692a39.384615 39.384615 0 0 1-39.108923-34.776615L196.923077 580.923077v-118.153846h630.153846V580.923077a39.384615 39.384615 0 0 1-34.776615 39.108923L787.692308 620.307692h-137.846154v-78.76923a19.692308 19.692308 0 0 0-39.069539-3.544616L610.461538 541.538462V620.307692h-196.923076v-78.76923a19.692308 19.692308 0 0 0-39.069539-3.544616L374.153846 541.538462V620.307692z"  horiz-adv-x="1024" />

    
    <glyph glyph-name="shuxingjiegou" unicode="&#59167;" d="M669.538462 738.461538a39.384615 39.384615 0 0 0 39.384615-39.384615v-157.538461a39.384615 39.384615 0 0 0-39.384615-39.384616h-216.615385l-0.039385-157.538461h298.771693a59.076923 59.076923 0 1 0 0-39.384616H452.923077l0.039385-177.230769h101.80923a59.076923 59.076923 0 1 0 0-39.384615H433.230769a19.692308 19.692308 0 0 0-19.377231 16.147692L413.538462 108.307692V502.153846H196.923077a39.384615 39.384615 0 0 0-39.384615 39.384616V699.076923a39.384615 39.384615 0 0 0 39.384615 39.384615h472.615385z m-59.076924-610.461538a19.692308 19.692308 0 1 1 0-39.384615 19.692308 19.692308 0 0 1 0 39.384615z m196.923077 216.615385a19.692308 19.692308 0 1 1 0-39.384616 19.692308 19.692308 0 0 1 0 39.384616zM669.538462 699.076923H196.923077v-157.538461h472.615385V699.076923z"  horiz-adv-x="1024" />

    
    <glyph glyph-name="wenjianxuanze" unicode="&#59168;" d="M394.397538 738.461538l118.193231-78.76923H787.692308a78.769231 78.769231 0 0 0 78.76923-78.769231v-472.615385a78.769231 78.769231 0 0 0-78.76923-78.76923H236.307692a78.769231 78.769231 0 0 0-78.76923 78.76923V659.692308a78.769231 78.769231 0 0 0 78.76923 78.76923h158.089846zM827.076923 423.384615H196.923077v-315.076923a39.384615 39.384615 0 0 1 34.776615-39.108923L236.307692 68.923077h551.384616a39.384615 39.384615 0 0 1 39.108923 34.776615L827.076923 108.307692v315.076923zM382.464 699.076923H236.307692a39.384615 39.384615 0 0 1-39.108923-34.776615L196.923077 659.692308v-196.923077h630.153846V580.923077a39.384615 39.384615 0 0 1-34.776615 39.108923L787.692308 620.307692h-275.101539a39.384615 39.384615 0 0 0-17.841231 4.253539l-4.01723 2.363077L382.464 699.076923z"  horiz-adv-x="1024" />

    
    <glyph glyph-name="xiaoxishu" unicode="&#59169;" d="M630.705231 718.769231a19.692308 19.692308 0 0 0 3.544615-39.069539l-3.544615-0.315077H275.692308a59.076923 59.076923 0 0 1-58.801231-53.405538L216.615385 620.307692v-472.615384a59.076923 59.076923 0 0 1 53.405538-58.801231L275.692308 88.615385h472.615384a59.076923 59.076923 0 0 1 58.801231 53.405538L807.384615 147.692308V502.232615a19.692308 19.692308 0 0 0 39.069539 3.544616l0.315077-3.544616V147.692308a98.461538 98.461538 0 0 0-92.002462-98.264616L748.307692 49.230769H275.692308a98.461538 98.461538 0 0 0-98.264616 92.002462L177.230769 147.692308V620.307692a98.461538 98.461538 0 0 0 92.002462 98.264616L275.692308 718.769231h355.012923zM787.692308 738.461538a78.769231 78.769231 0 1 0 0-157.538461 78.769231 78.769231 0 0 0 0 157.538461z m0-39.384615a39.384615 39.384615 0 1 1 0-78.769231 39.384615 39.384615 0 0 1 0 78.769231z"  horiz-adv-x="1024" />

    
    <glyph glyph-name="liebiao" unicode="&#59170;" d="M787.692308 738.461538a78.769231 78.769231 0 0 0 78.76923-78.76923v-551.384616a78.769231 78.769231 0 0 0-78.76923-78.76923H236.307692a78.769231 78.769231 0 0 0-78.76923 78.76923V659.692308a78.769231 78.769231 0 0 0 78.76923 78.76923h551.384616z m0-39.384615H236.307692a39.384615 39.384615 0 0 1-39.108923-34.776615L196.923077 659.692308v-551.384616a39.384615 39.384615 0 0 1 34.776615-39.108923L236.307692 68.923077h551.384616a39.384615 39.384615 0 0 1 39.108923 34.776615L827.076923 108.307692V659.692308a39.384615 39.384615 0 0 1-34.776615 39.108923L787.692308 699.076923zM315.076923 246.153846a19.692308 19.692308 0 1 0 0-39.384615 19.692308 19.692308 0 0 0 0 39.384615z m413.538462 0a19.692308 19.692308 0 0 0 3.544615-39.069538l-3.544615-0.315077h-315.076923a19.692308 19.692308 0 0 0-3.544616 39.069538l3.544616 0.315077h315.076923zM315.076923 403.692308a19.692308 19.692308 0 1 0 0-39.384616 19.692308 19.692308 0 0 0 0 39.384616z m413.538462 0a19.692308 19.692308 0 0 0 3.544615-39.069539l-3.544615-0.315077h-315.076923a19.692308 19.692308 0 0 0-3.544616 39.069539l3.544616 0.315077h315.076923zM315.076923 561.230769a19.692308 19.692308 0 1 0 0-39.384615 19.692308 19.692308 0 0 0 0 39.384615z m413.538462 0a19.692308 19.692308 0 0 0 3.544615-39.069538l-3.544615-0.315077h-315.076923a19.692308 19.692308 0 0 0-3.544616 39.069538l3.544616 0.315077h315.076923z"  horiz-adv-x="1024" />

    
    <glyph glyph-name="qipao" unicode="&#59171;" d="M748.307692 699.076923a78.769231 78.769231 0 0 0 78.769231-78.769231v-330.318769a78.769231 78.769231 0 0 0-78.769231-78.769231h-102.124307l-204.169847-124.100923a19.692308 19.692308 0 0 0-29.932307 16.817231v107.283692H275.692308a78.769231 78.769231 0 0 0-78.769231 78.769231V620.307692a78.769231 78.769231 0 0 0 78.769231 78.769231h472.615384z m0-39.384615H275.692308a39.384615 39.384615 0 0 1-39.108923-34.776616L236.307692 620.307692v-330.318769a39.384615 39.384615 0 0 1 34.776616-39.108923l4.608-0.275692h136.388923a39.384615 39.384615 0 0 0 39.108923-34.776616l0.275692-4.608-0.039384-72.270769 174.316307 105.944615a39.384615 39.384615 0 0 0 15.084308 5.356308l5.356308 0.354462H748.307692a39.384615 39.384615 0 0 1 39.108923 34.776615l0.275693 4.608V620.307692a39.384615 39.384615 0 0 1-34.776616 39.108923L748.307692 659.692308zM354.461538 502.153846a39.384615 39.384615 0 1 0 0-78.769231 39.384615 39.384615 0 0 0 0 78.769231z m157.538462 0a39.384615 39.384615 0 1 0 0-78.769231 39.384615 39.384615 0 0 0 0 78.769231z m157.538462 0a39.384615 39.384615 0 1 0 0-78.769231 39.384615 39.384615 0 0 0 0 78.769231z"  horiz-adv-x="1024" />

    
    <glyph glyph-name="mianbaoxie" unicode="&#59172;" d="M231.896615 695.926154l2.756923-2.166154 310.468924-289.870769a19.692308 19.692308 0 0 0 2.599384-25.875693l-2.441846-2.796307-315.076923-300.859077a19.692308 19.692308 0 0 0-29.538462 25.836308l2.363077 2.678153 299.953231 286.444308-295.187692 275.692308a19.692308 19.692308 0 0 0-3.150769 25.009231l2.205538 2.796307a19.692308 19.692308 0 0 0 25.048615 3.150769z m275.692308 0l2.756923-2.166154 310.468923-289.870769a19.692308 19.692308 0 0 0 2.599385-25.875693l-2.441846-2.796307-315.076923-300.859077a19.692308 19.692308 0 0 0-29.538462 25.836308l2.363077 2.678153 299.953231 286.444308-295.187693 275.692308a19.692308 19.692308 0 0 0-3.150769 25.009231l2.205539 2.796307a19.692308 19.692308 0 0 0 25.048615 3.150769z"  horiz-adv-x="1024" />

    
    <glyph glyph-name="redian" unicode="&#59173;" d="M787.692308 738.461538a78.769231 78.769231 0 0 0 78.76923-78.76923v-551.384616a78.769231 78.769231 0 0 0-78.76923-78.76923H236.307692a78.769231 78.769231 0 0 0-78.76923 78.76923V659.692308a78.769231 78.769231 0 0 0 78.76923 78.76923h551.384616z m0-39.384615H236.307692a39.384615 39.384615 0 0 1-39.108923-34.776615L196.923077 659.692308v-551.384616a39.384615 39.384615 0 0 1 34.776615-39.108923L236.307692 68.923077h551.384616a39.384615 39.384615 0 0 1 39.108923 34.776615L827.076923 108.307692V659.692308a39.384615 39.384615 0 0 1-34.776615 39.108923L787.692308 699.076923z m-254.700308-258.993231c40.054154-23.118769 57.895385-69.907692 40.054154-107.480615l-2.678154-5.041231-78.769231-136.428308c-22.134154-38.321231-74.279385-48.049231-116.145231-23.906461-40.014769 23.118769-57.895385 69.907692-40.014769 107.441231l2.678154 5.080615 39.069539 67.662769a19.692308 19.692308 0 0 0 35.603692-16.462769l-1.496616-3.229538-39.069538-67.66277c-10.515692-18.195692-1.142154-44.819692 22.921846-58.722461 22.488615-12.996923 48.167385-9.334154 60.022154 6.025846l2.323692 3.465846 78.769231 136.428308c10.515692 18.195692 1.142154 44.819692-22.961231 58.722461a19.692308 19.692308 0 0 0 19.692308 34.107077z m98.461538 170.535385c40.054154-23.118769 57.895385-69.907692 40.054154-107.441231l-2.678154-5.080615-39.778461-68.923077a19.692308 19.692308 0 0 0-35.603692 16.462769l1.496615 3.229539 39.778462 68.923076c10.515692 18.195692 1.142154 44.819692-22.961231 58.722462-22.449231 12.996923-48.128 9.334154-59.982769-6.025846l-2.323693-3.465846-78.769231-136.428308c-10.515692-18.195692-1.142154-44.819692 22.921847-58.722462a19.692308 19.692308 0 1 0-19.692308-34.107076c-40.014769 23.118769-57.895385 69.907692-40.014769 107.480615l2.678154 5.041231 78.76923 136.428307c22.134154 38.321231 74.279385 48.049231 116.105846 23.906462z"  horiz-adv-x="1024" />

    
    <glyph glyph-name="shurukuang" unicode="&#59174;" d="M787.692308 738.461538a78.769231 78.769231 0 0 0 78.76923-78.76923v-551.384616a78.769231 78.769231 0 0 0-78.76923-78.76923H236.307692a78.769231 78.769231 0 0 0-78.76923 78.76923V659.692308a78.769231 78.769231 0 0 0 78.76923 78.76923h551.384616z m0-39.384615H236.307692a39.384615 39.384615 0 0 1-39.108923-34.776615L196.923077 659.692308v-551.384616a39.384615 39.384615 0 0 1 34.776615-39.108923L236.307692 68.923077h551.384616a39.384615 39.384615 0 0 1 39.108923 34.776615L827.076923 108.307692V659.692308a39.384615 39.384615 0 0 1-34.776615 39.108923L787.692308 699.076923z m-354.461539-39.384615a19.692308 19.692308 0 0 0 3.544616-39.069539L433.230769 620.307692H374.153846v-472.615384H433.230769a19.692308 19.692308 0 0 0 3.544616-39.069539L433.230769 108.307692H275.692308a19.692308 19.692308 0 0 0-3.544616 39.069539L275.692308 147.692308h59.076923V620.307692H275.692308a19.692308 19.692308 0 0 0-3.544616 39.069539L275.692308 659.692308h157.538461z"  horiz-adv-x="1024" />

    
    <glyph glyph-name="kongzhuangtai" unicode="&#59175;" d="M734.208 541.538462a78.769231 78.769231 0 0 0 73.216-49.703385L866.461538 343.118769V108.307692a78.769231 78.769231 0 0 0-78.76923-78.76923H236.307692a78.769231 78.769231 0 0 0-78.76923 78.76923v231.699693l59.195076 151.433846A78.769231 78.769231 0 0 0 290.107077 541.538462h444.100923z m-358.636308-216.615385H196.923077V108.307692a39.384615 39.384615 0 0 1 34.776615-39.108923L236.307692 68.923077h551.384616a39.384615 39.384615 0 0 1 39.108923 34.776615L827.076923 108.307692v216.615385h-178.648615a137.846154 137.846154 0 0 0-272.856616 0z m358.636308 177.230769H290.107077a39.384615 39.384615 0 0 1-34.658462-20.676923l-2.048-4.371692-44.110769-112.797539h180.302769l-0.039384-0.472615A19.771077 19.771077 0 0 0 413.538462 344.615385a98.461538 98.461538 0 1 1 196.923076 0 19.692308 19.692308 0 0 0 18.786462 19.692307h186.407385l-44.819693 112.994462a39.384615 39.384615 0 0 1-31.822769 24.576L734.208 502.153846z m-203.539692 295.384616a19.692308 19.692308 0 0 0 19.37723-16.147693l0.315077-3.544615v-155.254154a19.692308 19.692308 0 0 0-39.069538-3.544615l-0.315077 3.544615V777.846154a19.692308 19.692308 0 0 0 19.692308 19.692308z m-241.506462-5.316924l2.363077-2.678153 114.648615-155.254154a19.692308 19.692308 0 0 0-29.302153-26.033231l-2.363077 2.638769-114.648616 155.254154a19.692308 19.692308 0 0 0 29.302154 26.072615z m509.518769 1.496616a19.692308 19.692308 0 0 0 6.025847-24.497231l-1.851077-3.032615-114.294154-155.254154a19.692308 19.692308 0 0 0-33.555693 20.322461l1.811693 3.032616 114.333538 155.214769a19.692308 19.692308 0 0 0 27.569231 4.214154z"  horiz-adv-x="1024" />

    
    <glyph glyph-name="yanzhengma" unicode="&#59176;" d="M694.153846 738.461538c49.545846 0 90.033231-38.715077 93.341539-87.630769L787.692308 644.332308v-194.717539a19.692308 19.692308 0 0 0-39.069539-3.544615l-0.315077 3.544615V644.371692c0 28.475077-21.504 51.790769-48.955077 54.468923L694.153846 699.076923H251.076923a54.350769 54.350769 0 0 1-53.917538-49.427692L196.923077 644.371692V123.667692c0-28.475077 21.504-51.790769 48.955077-54.468923l5.198769-0.236307h443.076923a54.350769 54.350769 0 0 1 53.917539 49.427692l0.236307 5.277538v73.216a19.692308 19.692308 0 0 0 39.069539 3.544616l0.315077-3.544616v-73.255384c0-49.742769-38.439385-90.505846-87.11877-93.814154l-6.419692-0.236308H251.076923a93.774769 93.774769 0 0 0-93.341538 87.630769L157.538462 123.667692V644.332308c0 49.782154 38.439385 90.584615 87.118769 93.853538L251.076923 738.461538h443.076923z m194.481231-287.192615a19.692308 19.692308 0 0 0 1.654154-25.206154l-2.363077-2.638769-221.892923-211.219692a19.692308 19.692308 0 0 0-27.569231 0.393846l-115.672615 116.814769a19.692308 19.692308 0 1 0 27.963077 27.726769l102.084923-103.069538 207.950769 197.868308a19.692308 19.692308 0 0 0 27.844923-0.669539zM669.538462 541.656615a19.692308 19.692308 0 0 0 3.544615-39.069538l-3.544615-0.315077H275.692308a19.692308 19.692308 0 0 0-3.544616 39.069538L275.692308 541.656615h393.846154z"  horiz-adv-x="1024" />

    
    <glyph glyph-name="yuanxing" unicode="&#59177;" d="M512 738.461538a354.461538 354.461538 0 1 0 0-708.923076 354.461538 354.461538 0 0 0 0 708.923076z m0-39.384615a315.076923 315.076923 0 1 1 0-630.153846 315.076923 315.076923 0 0 1 0 630.153846z"  horiz-adv-x="1024" />

    
    <glyph glyph-name="wenbenyu" unicode="&#59178;" d="M787.692308 738.461538a78.769231 78.769231 0 0 0 78.76923-78.76923v-551.384616a78.769231 78.769231 0 0 0-78.76923-78.76923H236.307692a78.769231 78.769231 0 0 0-78.76923 78.76923V659.692308a78.769231 78.769231 0 0 0 78.76923 78.76923h551.384616z m0-39.384615H236.307692a39.384615 39.384615 0 0 1-39.108923-34.776615L196.923077 659.692308v-551.384616a39.384615 39.384615 0 0 1 34.776615-39.108923L236.307692 68.923077h551.384616a39.384615 39.384615 0 0 1 39.108923 34.776615L827.076923 108.307692V659.692308a39.384615 39.384615 0 0 1-34.776615 39.108923L787.692308 699.076923z m-118.153846-98.461538a19.692308 19.692308 0 0 0 3.544615-39.069539L669.538462 561.230769h-137.846154V187.076923a19.692308 19.692308 0 0 0-39.069539-3.544615L492.307692 187.076923V561.230769H354.461538a19.692308 19.692308 0 0 0-3.544615 39.069539L354.461538 600.615385h315.076924z"  horiz-adv-x="1024" />

    
    <glyph glyph-name="kaiguan" unicode="&#59179;" d="M708.923077 344.615385a157.538462 157.538462 0 1 0 0-315.076923H315.076923a157.538462 157.538462 0 1 0 0 315.076923h393.846154z m0-39.384616H315.076923a118.153846 118.153846 0 0 1-6.931692-236.110769L315.076923 68.923077h393.846154a118.153846 118.153846 0 0 1 6.931692 236.110769L708.923077 305.230769z m-354.461539-39.384615a78.769231 78.769231 0 1 0 0-157.538462 78.769231 78.769231 0 0 0 0 157.538462z m0-39.384616a39.384615 39.384615 0 1 1 0-78.76923 39.384615 39.384615 0 0 1 0 78.76923z m354.461539 512a157.538462 157.538462 0 1 0 0-315.076923H315.076923a157.538462 157.538462 0 1 0 0 315.076923h393.846154z m0-39.384615H315.076923a118.153846 118.153846 0 0 1-6.931692-236.110769L315.076923 462.769231h393.846154a118.153846 118.153846 0 0 1 6.931692 236.110769L708.923077 699.076923z m-39.384615-39.384615a78.769231 78.769231 0 1 0 0-157.538462 78.769231 78.769231 0 0 0 0 157.538462z m0-39.384616a39.384615 39.384615 0 1 1 0-78.76923 39.384615 39.384615 0 0 1 0 78.76923z"  horiz-adv-x="1024" />

    
    <glyph glyph-name="shijianzhanshi" unicode="&#59180;" d="M787.692308 738.461538a78.769231 78.769231 0 0 0 78.76923-78.76923v-551.384616a78.769231 78.769231 0 0 0-78.76923-78.76923H236.307692a78.769231 78.769231 0 0 0-78.76923 78.76923V659.692308a78.769231 78.769231 0 0 0 78.76923 78.76923h551.384616z m0-39.384615H236.307692a39.384615 39.384615 0 0 1-39.108923-34.776615L196.923077 659.692308v-551.384616a39.384615 39.384615 0 0 1 34.776615-39.108923L236.307692 68.923077h551.384616a39.384615 39.384615 0 0 1 39.108923 34.776615L827.076923 108.307692V659.692308a39.384615 39.384615 0 0 1-34.776615 39.108923L787.692308 699.076923zM348.16 555.992615l2.363077-2.638769 171.323077-228.430769h167.384615a19.692308 19.692308 0 0 0 19.377231-16.147692L708.923077 305.230769a19.692308 19.692308 0 0 0-16.147692-19.377231l-3.544616-0.315076H512a19.692308 19.692308 0 0 0-13.272615 5.12l-2.481231 2.756923-177.230769 236.307692a19.692308 19.692308 0 0 0 29.144615 26.269538z"  horiz-adv-x="1024" />

    
    <glyph glyph-name="tupian" unicode="&#59181;" d="M787.692308 699.076923a78.769231 78.769231 0 0 0 78.76923-78.769231v-472.615384a78.769231 78.769231 0 0 0-78.76923-78.769231H236.307692a78.769231 78.769231 0 0 0-78.76923 78.769231V620.307692a78.769231 78.769231 0 0 0 78.76923 78.769231h551.384616z m0-39.384615H236.307692a39.384615 39.384615 0 0 1-39.108923-34.776616L196.923077 620.307692v-472.615384a39.384615 39.384615 0 0 1 34.776615-39.108923L236.307692 108.307692h551.384616a39.384615 39.384615 0 0 1 39.108923 34.776616L827.076923 147.692308V620.307692a39.384615 39.384615 0 0 1-34.776615 39.108923L787.692308 659.692308z m-81.762462-140.996923l2.993231-2.402462 92.475077-89.796923a19.692308 19.692308 0 0 0-24.654769-30.483692l-2.756923 2.244923-76.681847 74.397538-165.021538-214.567384a19.692308 19.692308 0 0 0-24.654769-5.513847l-2.993231 1.969231-107.086769 82.904616-146.589539-163.524923a19.692308 19.692308 0 0 0-24.930461-3.623385l-2.875077 2.126769a19.692308 19.692308 0 0 0-3.623385 24.930462l2.126769 2.875077L380.455385 377.304615a19.692308 19.692308 0 0 0 23.512615 4.450462l3.190154-2.008615 105.984-81.99877 166.439384 216.379077a19.692308 19.692308 0 0 0 26.348308 4.529231zM305.230769 502.153846a29.538462 29.538462 0 1 0 0-59.076923 29.538462 29.538462 0 0 0 0 59.076923z"  horiz-adv-x="1024" />

    
    <glyph glyph-name="xuanxiangka" unicode="&#59182;" d="M433.388308 738.461538a39.384615 39.384615 0 0 0 39.108923-34.776615l0.275692-4.608v-118.153846a39.384615 39.384615 0 0 1 34.737231-39.108923l4.608-0.275692H787.692308a78.769231 78.769231 0 0 0 78.76923-78.769231v-354.461539a78.769231 78.769231 0 0 0-78.76923-78.76923H236.307692a78.769231 78.769231 0 0 0-78.76923 78.76923V659.692308a78.769231 78.769231 0 0 0 78.76923 78.76923h197.080616z m-0.039385-39.384615H236.307692a39.384615 39.384615 0 0 1-39.108923-34.776615L196.923077 659.692308v-551.384616a39.384615 39.384615 0 0 1 34.776615-39.108923L236.307692 68.923077h551.384616a39.384615 39.384615 0 0 1 39.108923 34.776615L827.076923 108.307692v354.461539a39.384615 39.384615 0 0 1-34.776615 39.108923L787.692308 502.153846l-277.779693 0.078769-6.931692 0.433231a78.769231 78.769231 0 0 0-69.356308 71.995077l-0.275692 6.301539V699.076923zM827.076923 738.461538a39.384615 39.384615 0 0 0 39.384615-39.384615v-78.769231a39.384615 39.384615 0 0 0-39.384615-39.384615h-275.692308a39.384615 39.384615 0 0 0-39.384615 39.384615V699.076923a39.384615 39.384615 0 0 0 39.384615 39.384615h275.692308z m0-39.384615h-275.692308v-78.769231h275.692308V699.076923z"  horiz-adv-x="1024" />

    
    <glyph glyph-name="zoumadeng" unicode="&#59183;" d="M748.307692 187.076923a39.384615 39.384615 0 0 0 31.507693-63.015385L708.923077 29.538462H315.076923l-70.892308 94.523076A39.384615 39.384615 0 0 0 275.692308 187.076923h472.615384z m0-39.384615H275.692308l59.076923-78.769231h354.461538l59.076923 78.769231z m39.384616 393.846154a78.769231 78.769231 0 0 0 78.76923-78.769231v-157.538462a78.769231 78.769231 0 0 0-78.76923-78.769231H236.307692a78.769231 78.769231 0 0 0-78.76923 78.769231v157.538462a78.769231 78.769231 0 0 0 78.76923 78.769231h551.384616z m0-39.384616H236.307692a39.384615 39.384615 0 0 1-39.108923-34.776615L196.923077 462.769231v-157.538462a39.384615 39.384615 0 0 1 34.776615-39.108923L236.307692 265.846154h551.384616a39.384615 39.384615 0 0 1 39.108923 34.776615L827.076923 305.230769v157.538462a39.384615 39.384615 0 0 1-34.776615 39.108923L787.692308 502.153846z m-78.769231 236.307692l70.892308-94.523076A39.384615 39.384615 0 0 0 748.307692 580.923077H275.692308a39.384615 39.384615 0 0 0-31.507693 63.015385L315.076923 738.461538h393.846154z m-19.692308-39.384615h-354.461538L275.692308 620.307692h472.615384l-59.076923 78.769231z"  horiz-adv-x="1024" />

    
    <glyph glyph-name="icon" unicode="&#59184;" d="M512 738.461538a354.461538 354.461538 0 1 0 0-708.923076 354.461538 354.461538 0 0 0 0 708.923076z m249.698462-413.538461c-143.596308 0-261.001846-112.994462-268.996924-255.409231a315.195077 315.195077 0 0 1 327.522462 248.910769 266.752 266.752 0 0 1-58.525538 6.498462z m-368.009847-78.769231c-47.655385 0-92.908308-20.440615-129.142153-57.186461a314.761846 314.761846 0 0 1 189.046153-114.609231 309.326769 309.326769 0 0 0 42.299077 137.688615l4.17477-3.072c-31.901538 24.260923-68.371692 37.179077-106.377847 37.179077zM512 699.076923a315.076923 315.076923 0 0 1-270.178462-477.302154C284.356923 262.577231 337.408 285.538462 393.688615 285.538462c43.204923 0 84.755692-13.508923 121.225847-38.675693l3.072-2.244923a307.751385 307.751385 0 0 0 307.987692 112.955077A315.076923 315.076923 0 0 1 512 699.076923zM384 541.538462a29.538462 29.538462 0 1 0 0-59.076924 29.538462 29.538462 0 0 0 0 59.076924z"  horiz-adv-x="1024" />

    
    <glyph glyph-name="riqishijian" unicode="&#59185;" d="M649.846154 718.769231a19.692308 19.692308 0 0 0 19.377231-16.147693L669.538462 699.076923v-39.384615h118.153846a78.769231 78.769231 0 0 0 78.76923-78.769231l0.039385-173.056A277.110154 277.110154 0 0 1 800.689231 482.461538H827.076923V580.923077a39.384615 39.384615 0 0 1-34.776615 39.108923L787.692308 620.307692h-118.153846v-78.76923a19.692308 19.692308 0 0 0-39.069539-3.544616L630.153846 541.538462V620.307692h-196.923077v-78.76923a19.692308 19.692308 0 0 0-39.069538-3.544616L393.846154 541.538462V620.307692H236.307692a39.384615 39.384615 0 0 1-39.108923-34.776615L196.923077 580.923077v-98.422154h262.734769a277.346462 277.346462 0 0 1-40.644923-39.384615H196.923077V108.307692a39.384615 39.384615 0 0 1 34.776615-39.108923L236.307692 68.923077l200.979693-0.078769c15.320615-14.966154 32.374154-28.238769 50.845538-39.384616L236.307692 29.538462a78.769231 78.769231 0 0 0-78.76923 78.76923V580.923077a78.769231 78.769231 0 0 0 78.76923 78.769231h157.538462V699.076923a19.692308 19.692308 0 0 0 39.069538 3.544615L433.230769 699.076923v-39.384615h196.923077V699.076923a19.692308 19.692308 0 0 0 19.692308 19.692308zM630.153846 502.153846a236.307692 236.307692 0 1 0 0-472.615384 236.307692 236.307692 0 0 0 0 472.615384z m0-39.384615a196.923077 196.923077 0 1 1 0-393.846154 196.923077 196.923077 0 0 1 0 393.846154z m-39.384615-59.076923a19.692308 19.692308 0 0 0 19.377231-16.147693l0.315076-3.544615v-133.277538l110.67077-87.591385a19.692308 19.692308 0 0 0 5.198769-24.694154l-1.969231-2.953846a19.692308 19.692308 0 0 0-24.694154-5.198769l-2.953846 1.96923-118.153846 93.459693a19.692308 19.692308 0 0 0-7.168 11.894154l-0.315077 3.544615V384a19.692308 19.692308 0 0 0 19.692308 19.692308z"  horiz-adv-x="1024" />

    
    <glyph glyph-name="xinxitishi" unicode="&#59186;" d="M512 738.461538a354.461538 354.461538 0 1 0 0-708.923076 354.461538 354.461538 0 0 0 0 708.923076z m0-39.384615a315.076923 315.076923 0 1 1 0-630.153846 315.076923 315.076923 0 0 1 0 630.153846z m0-472.615385a29.538462 29.538462 0 1 0 0-59.076923 29.538462 29.538462 0 0 0 0 59.076923z m0 374.153847a19.692308 19.692308 0 0 0 19.377231-16.147693L531.692308 580.923077v-275.692308a19.692308 19.692308 0 0 0-39.069539-3.544615L492.307692 305.230769V580.923077a19.692308 19.692308 0 0 0 19.692308 19.692308z"  horiz-adv-x="1024" />

    
    <glyph glyph-name="tupianchakan" unicode="&#59187;" d="M772.371692 738.461538c49.782154 0 90.584615-38.675692 93.853539-87.630769L866.461538 644.332308v-299.165539a19.692308 19.692308 0 0 0-39.069538-3.544615l-0.315077 3.544615V644.371692a54.744615 54.744615 0 0 1-49.427692 54.468923L772.332308 699.076923H251.667692a54.744615 54.744615 0 0 1-54.468923-49.427692L196.923077 644.332308V123.667692c0-28.435692 21.661538-51.790769 49.427692-54.468923L251.667692 68.923077h298.968616a19.692308 19.692308 0 0 0 3.544615-39.069539l-3.544615-0.315076H251.628308c-49.782154 0-90.584615 38.675692-93.853539 87.630769L157.538462 123.667692V644.332308c0 49.782154 38.675692 90.584615 87.630769 93.853538L251.667692 738.461538H772.332308zM669.538462 364.307692a98.461538 98.461538 0 0 0 81.683692-153.442461l94.404923-108.110769a19.692308 19.692308 0 0 0-27.057231-28.356924l-2.599384 2.441847-92.947693 106.338461A98.461538 98.461538 0 1 0 669.538462 364.307692z m0-39.384615a59.076923 59.076923 0 1 1 0-118.153846 59.076923 59.076923 0 0 1 0 118.153846z m113.033846 288.925538a19.692308 19.692308 0 0 0 1.063384-25.206153l-2.402461-2.599385-268.918154-243.790769a19.692308 19.692308 0 0 0-23.788308-2.048l-2.993231 2.363077-88.891076 84.125538-127.369847-116.302769a19.692308 19.692308 0 0 0-25.206153-1.181539l-2.599385 2.441847a19.692308 19.692308 0 0 0-1.181539 25.206153l2.441847 2.599385 140.878769 128.669538a19.692308 19.692308 0 0 0 23.827692 2.087385l2.993231-2.363077 88.930461-84.164923 255.409231 231.502769a19.692308 19.692308 0 0 0 27.805539-1.339077zM315.076923 640a59.076923 59.076923 0 1 0 0-118.153846 59.076923 59.076923 0 0 0 0 118.153846z m0-39.384615a19.692308 19.692308 0 1 1 0-39.384616 19.692308 19.692308 0 0 1 0 39.384616z"  horiz-adv-x="1024" />

    
    <glyph glyph-name="xialacaidan" unicode="&#59188;" d="M787.692308 738.461538a78.769231 78.769231 0 0 0 78.76923-78.76923v-551.384616a78.769231 78.769231 0 0 0-78.76923-78.76923H236.307692a78.769231 78.769231 0 0 0-78.76923 78.76923V659.692308a78.769231 78.769231 0 0 0 78.76923 78.76923h551.384616z m0-39.384615H236.307692a39.384615 39.384615 0 0 1-39.108923-34.776615L196.923077 659.692308v-551.384616a39.384615 39.384615 0 0 1 34.776615-39.108923L236.307692 68.923077h551.384616a39.384615 39.384615 0 0 1 39.108923 34.776615L827.076923 108.307692V659.692308a39.384615 39.384615 0 0 1-34.776615 39.108923L787.692308 699.076923zM368.403692 481.673846l2.756923-2.244923 141.036308-141.036308 140.878769 140.839385a19.692308 19.692308 0 0 0 25.127385 2.284308l2.756923-2.284308a19.692308 19.692308 0 0 0 2.244923-25.088l-2.244923-2.756923-154.820923-154.781539a19.692308 19.692308 0 0 0-25.127385-2.284307l-2.756923 2.244923-154.978461 155.017846a19.692308 19.692308 0 0 0 25.127384 30.129231z"  horiz-adv-x="1024" />

    
    <glyph glyph-name="wenzitishi" unicode="&#59189;" d="M748.307692 699.076923a78.769231 78.769231 0 0 0 78.769231-78.769231v-330.318769a78.769231 78.769231 0 0 0-78.769231-78.769231h-102.124307l-204.169847-124.100923a19.692308 19.692308 0 0 0-29.932307 16.817231v107.283692H275.692308a78.769231 78.769231 0 0 0-78.769231 78.769231V620.307692a78.769231 78.769231 0 0 0 78.769231 78.769231h472.615384z m0-39.384615H275.692308a39.384615 39.384615 0 0 1-39.108923-34.776616L236.307692 620.307692v-330.318769a39.384615 39.384615 0 0 1 34.776616-39.108923l4.608-0.275692h136.388923a39.384615 39.384615 0 0 0 39.108923-34.776616l0.275692-4.608-0.039384-72.270769 174.316307 105.944615a39.384615 39.384615 0 0 0 15.084308 5.356308l5.356308 0.354462H748.307692a39.384615 39.384615 0 0 1 39.108923 34.776615l0.275693 4.608V620.307692a39.384615 39.384615 0 0 1-34.776616 39.108923L748.307692 659.692308z m-137.846154-98.461539a19.692308 19.692308 0 0 0 3.544616-39.069538l-3.544616-0.315077h-78.76923V344.615385a19.692308 19.692308 0 0 0-39.069539-3.544616L492.307692 344.615385V521.846154h-78.76923a19.692308 19.692308 0 0 0-3.544616 39.069538l3.544616 0.315077h196.923076z"  horiz-adv-x="1024" />

    
    <glyph glyph-name="sousuokuang" unicode="&#59190;" d="M787.692308 738.461538a78.769231 78.769231 0 0 0 78.76923-78.76923v-551.384616a78.769231 78.769231 0 0 0-78.76923-78.76923H236.307692a78.769231 78.769231 0 0 0-78.76923 78.76923V659.692308a78.769231 78.769231 0 0 0 78.76923 78.76923h551.384616z m0-39.384615H236.307692a39.384615 39.384615 0 0 1-39.108923-34.776615L196.923077 659.692308v-551.384616a39.384615 39.384615 0 0 1 34.776615-39.108923L236.307692 68.923077h551.384616a39.384615 39.384615 0 0 1 39.108923 34.776615L827.076923 108.307692V659.692308a39.384615 39.384615 0 0 1-34.776615 39.108923L787.692308 699.076923z m-315.076923-118.153846a157.538462 157.538462 0 0 0 124.612923-253.912615l113.112615-113.506462a19.692308 19.692308 0 0 0-25.166769-30.089846l-2.756923 2.284308-112.994462 113.427692A157.538462 157.538462 0 1 0 472.615385 580.923077z m0-39.384615a118.153846 118.153846 0 1 1 0-236.307693 118.153846 118.153846 0 0 1 0 236.307693z"  horiz-adv-x="1024" />

    
    <glyph glyph-name="shitu" unicode="&#59191;" d="M640 713.142857a91.428571 91.428571 0 0 0 91.245714-85.430857L731.428571 621.714286v-199.314286a18.285714 18.285714 0 0 0-36.278857-3.291429L694.857143 422.4V621.714286a54.857143 54.857143 0 0 1-49.590857 54.601143L640 676.571429h-365.714286a54.857143 54.857143 0 0 1-54.601143-49.590858L219.428571 621.714286v-475.428572a54.857143 54.857143 0 0 1 49.590858-54.601143L274.285714 91.428571H402.285714a18.285714 18.285714 0 0 0 3.291429-36.278857L402.285714 54.857143H274.285714a91.428571 91.428571 0 0 0-91.245714 85.430857L182.857143 146.285714v475.428572a91.428571 91.428571 0 0 0 85.430857 91.245714L274.285714 713.142857h365.714286zM621.714286 347.428571c100.973714 0 182.857143-49.115429 182.857143-109.714285s-81.883429-109.714286-182.857143-109.714286-182.857143 49.115429-182.857143 109.714286 81.883429 109.714286 182.857143 109.714285z m0-36.571428c-83.419429 0-146.285714-37.705143-146.285715-73.142857 0-35.437714 62.866286-73.142857 146.285715-73.142857 83.419429 0 146.285714 37.705143 146.285714 73.142857 0 35.437714-62.866286 73.142857-146.285714 73.142857z m0-36.571429a36.571429 36.571429 0 1 0 0-73.142857 36.571429 36.571429 0 0 0 0 73.142857z m0 201.142857a18.285714 18.285714 0 0 0 3.291428-36.278857L621.714286 438.857143H292.571429a18.285714 18.285714 0 0 0-3.291429 36.278857L292.571429 475.428571h329.142857z m0 109.714286a18.285714 18.285714 0 0 0 3.291428-36.278857L621.714286 548.571429H292.571429a18.285714 18.285714 0 0 0-3.291429 36.278857L292.571429 585.142857h329.142857z"  horiz-adv-x="1024" />

    
    <glyph glyph-name="shujutubiao" unicode="&#59192;" d="M531.692308 738.461538v-0.551384a354.461538 354.461538 0 1 0-39.384616 0V738.461538h39.384616zM196.923077 384a315.076923 315.076923 0 0 1 523.933538-235.913846l-223.192615 237.489231a19.692308 19.692308 0 0 0-5.001846 9.767384l-0.354462 3.741539V698.486154A315.076923 315.076923 0 0 1 196.923077 384z m356.273231 0l195.50523-207.950769A313.895385 313.895385 0 0 1 827.076923 384h-273.880615zM531.692308 698.486154V423.384615h292.942769A315.155692 315.155692 0 0 1 531.692308 698.486154z"  horiz-adv-x="1024" />

    
    <glyph glyph-name="zhediemianban" unicode="&#59193;" d="M866.461538 108.307692a78.769231 78.769231 0 0 0-78.76923-78.76923H236.307692a78.769231 78.769231 0 0 0-78.76923 78.76923V659.692308a78.769231 78.769231 0 0 0 78.76923 78.76923h551.384616a78.769231 78.769231 0 0 0 78.76923-78.76923v-551.384616z m-39.384615 354.461539H196.923077v-354.461539a39.384615 39.384615 0 0 1 34.776615-39.108923L236.307692 68.923077h551.384616a39.384615 39.384615 0 0 1 39.108923 34.776615L827.076923 108.307692v354.461539z m-39.384615 236.307692H236.307692a39.384615 39.384615 0 0 1-39.108923-34.776615L196.923077 659.692308v-157.538462h630.153846V659.692308a39.384615 39.384615 0 0 1-34.776615 39.108923L787.692308 699.076923z m-109.095385-23.04l2.756923-2.244923 80.738462-78.769231a19.692308 19.692308 0 0 0-24.812308-30.444307l-2.756923 2.244923-66.599385 65.024-63.054769-64.669539a19.692308 19.692308 0 0 0-25.088-2.599384l-2.756923 2.244923a19.692308 19.692308 0 0 0-2.599385 25.088l2.244923 2.756923 76.8 78.76923a19.692308 19.692308 0 0 0 25.088 2.599385z"  horiz-adv-x="1024" />

    
    <glyph glyph-name="xuanzeqi" unicode="&#59194;" d="M393.846154 344.615385a78.769231 78.769231 0 0 0 78.769231-78.769231v-157.538462a78.769231 78.769231 0 0 0-78.769231-78.76923H236.307692a78.769231 78.769231 0 0 0-78.76923 78.76923v157.538462a78.769231 78.769231 0 0 0 78.76923 78.769231h157.538462z m0-39.384616H236.307692a39.384615 39.384615 0 0 1-39.108923-34.776615L196.923077 265.846154v-157.538462a39.384615 39.384615 0 0 1 34.776615-39.108923L236.307692 68.923077h157.538462a39.384615 39.384615 0 0 1 39.108923 34.776615L433.230769 108.307692v157.538462a39.384615 39.384615 0 0 1-34.776615 39.108923L393.846154 305.230769z m472.615384-196.923077a19.692308 19.692308 0 0 0 3.544616-39.069538L866.461538 68.923077h-275.692307a19.692308 19.692308 0 0 0-3.544616 39.069538L590.769231 108.307692h275.692307z m0 196.923077a19.692308 19.692308 0 0 0 3.544616-39.069538L866.461538 265.846154h-275.692307a19.692308 19.692308 0 0 0-3.544616 39.069538L590.769231 305.230769h275.692307zM393.846154 738.461538a78.769231 78.769231 0 0 0 78.769231-78.76923v-157.538462a78.769231 78.769231 0 0 0-78.769231-78.769231H236.307692a78.769231 78.769231 0 0 0-78.76923 78.769231V659.692308a78.769231 78.769231 0 0 0 78.76923 78.76923h157.538462z m0-39.384615H236.307692a39.384615 39.384615 0 0 1-39.108923-34.776615L196.923077 659.692308v-157.538462a39.384615 39.384615 0 0 1 34.776615-39.108923L236.307692 462.769231h157.538462a39.384615 39.384615 0 0 1 39.108923 34.776615L433.230769 502.153846V659.692308a39.384615 39.384615 0 0 1-34.776615 39.108923L393.846154 699.076923z m472.615384-196.923077a19.692308 19.692308 0 0 0 3.544616-39.069538L866.461538 462.769231h-275.692307a19.692308 19.692308 0 0 0-3.544616 39.069538L590.769231 502.153846h275.692307zM409.127385 632.713846a19.692308 19.692308 0 0 0-0.315077-25.206154l-2.56-2.48123-96.84677-78.769231a19.692308 19.692308 0 0 0-22.370461-1.732923l-2.835692 2.048-60.691693 51.987692a19.692308 19.692308 0 0 0 22.724923 31.940923l2.875077-2.048L297.353846 567.177846l84.125539 68.411077a19.692308 19.692308 0 0 0 27.687384-2.875077zM866.461538 699.076923a19.692308 19.692308 0 0 0 3.544616-39.069538L866.461538 659.692308h-275.692307a19.692308 19.692308 0 0 0-3.544616 39.069538L590.769231 699.076923h275.692307z"  horiz-adv-x="1024" />

    
    <glyph glyph-name="zhifu" unicode="&#59195;" d="M582.695385 721.408l4.214153-3.820308 139.224616-139.264A59.076923 59.076923 0 0 0 732.356923 502.153846L787.692308 502.153846a78.769231 78.769231 0 0 0 78.76923-78.769231v-315.076923a78.769231 78.769231 0 0 0-78.76923-78.76923H236.307692a78.769231 78.769231 0 0 0-78.76923 78.76923v315.076923a78.769231 78.769231 0 0 0 78.76923 78.769231h0.275693l40.723692 133.12a59.076923 59.076923 0 0 0 68.253538 40.644923l5.513847-1.417846 83.613538-25.560615L503.335385 717.587692a59.076923 59.076923 0 0 0 79.36 3.820308zM787.692308 462.769231H236.307692a39.384615 39.384615 0 0 1-39.108923-34.776616L196.923077 423.384615v-315.076923a39.384615 39.384615 0 0 1 34.776615-39.108923L236.307692 68.923077h551.384616a39.384615 39.384615 0 0 1 39.108923 34.776615L827.076923 108.307692v315.076923a39.384615 39.384615 0 0 1-34.776615 39.108923L787.692308 462.769231z m-98.461539-118.153846a78.769231 78.769231 0 1 0 0-157.538462 78.769231 78.769231 0 0 0 0 157.538462z m0-39.384616a39.384615 39.384615 0 1 1 0-78.769231 39.384615 39.384615 0 0 1 0 78.769231zM316.337231 627.081846l-1.339077-3.308308L277.779692 502.153846h10.121846l115.27877 115.278769-63.606154 19.416616a19.692308 19.692308 0 0 1-23.236923-9.767385z m217.6 64.905846l-2.756923-2.244923L343.591385 502.153846h334.178461l20.519385 20.48a19.692308 19.692308 0 0 1 2.284307 25.127385l-2.284307 2.717538-139.224616 139.264a19.692308 19.692308 0 0 1-25.127384 2.244923z"  horiz-adv-x="1024" />

    


  </font>
</defs>
</svg>
